# xmcd
#
# Track frame offsets: 
#        150
#        14445
#        34252
#        58177
#        73960
#        85135
#        103540
#        115267
#        140167
#        154920
#        167890
#        184425
#        207900
#        220905
#
# Disc length: 3177 seconds
#
# Revision: 0
# Processed by: cddbd v1.5.2PL0 Copyright (c) Steve Scherf et al.
# Submitted via: ExactAudioCopy v0.99pb4
#
DISCID=d90c670e
DTITLE=Roll and Tumble - Rattle That Thing
DYEAR=1900
DGENRE=Blues
TTITLE0=Rattle that Thing
TTITLE1=Going to Brownsville
TTITLE2=One Way Gal
TTITLE3=I'm Bettin' On You
TTITLE4=The Dream
TTITLE5=Heaven Help Me
TTITLE6=Bobo Stomp
TTITLE7=Little Engine
TTITLE8=I'm Happy Now
TTITLE9=Step Back
TTITLE10=Kokomo Blues
TTITLE11=That's Alright
TTITLE12=Take A Walk With Me
TTITLE13=Savannah Mama
EXTD=
EXTT0=
EXTT1=
EXTT2=
EXTT3=
EXTT4=
EXTT5=
EXTT6=
EXTT7=
EXTT8=
EXTT9=
EXTT10=
EXTT11=
EXTT12=
EXTT13=
PLAYORDER=
